<svg width="24" height="24" viewBox="0 0 24 24" fill="none" xmlns="http://www.w3.org/2000/svg">
<path d="M19.0153 4H4.9847C4.43078 3.99919 3.88797 4.15675 3.41908 4.45444C2.95019 4.75213 2.5744 5.17778 2.33521 5.68212C2.05521 6.28053 1.94737 6.94629 2.02397 7.60356C2.10057 8.26082 2.35853 8.88315 2.76846 9.39961L9.78376 17.9784C10.0591 18.2991 10.3994 18.5563 10.7818 18.7325C11.1642 18.9088 11.5796 19 12 19C12.4204 19 12.8358 18.9088 13.2182 18.7325C13.6006 18.5563 13.9409 18.2991 14.2162 17.9784L21.2315 9.39961C21.6415 8.88315 21.8994 8.26082 21.976 7.60356C22.0526 6.94629 21.9448 6.28053 21.6648 5.68212C21.4256 5.17778 21.0498 4.75213 20.5809 4.45444C20.112 4.15675 19.5692 3.99919 19.0153 4ZM5.33463 7.36425H18.4987L12 15.4721L5.33463 7.36425Z" fill="#6953A3"/>
</svg>
