<svg width="24" height="24" viewBox="0 0 24 24" fill="none" xmlns="http://www.w3.org/2000/svg">
<g clip-path="url(#clip0_8483_1270)">
<path d="M12 23.7188C18.4721 23.7188 23.7188 18.4721 23.7188 12C23.7188 5.52791 18.4721 0.28125 12 0.28125C5.52791 0.28125 0.28125 5.52791 0.28125 12C0.28125 18.4721 5.52791 23.7188 12 23.7188Z" fill="#62D6FF"/>
<path d="M12 22.7812C17.9543 22.7812 22.7812 17.9543 22.7812 12C22.7812 6.04568 17.9543 1.21875 12 1.21875C6.04568 1.21875 1.21875 6.04568 1.21875 12C1.21875 17.9543 6.04568 22.7812 12 22.7812Z" fill="url(#paint0_linear_8483_1270)"/>
<path d="M20.9811 10.4431C20.9811 15.0198 16.9601 16.2188 12 16.2188C7.03991 16.2188 3.01892 15.0198 3.01892 10.4431C3.01892 5.86641 7.03991 2.15625 12 2.15625C16.9601 2.15625 20.9811 5.86641 20.9811 10.4431Z" fill="url(#paint1_linear_8483_1270)"/>
<path d="M4.03125 12.9375L9.65625 18.5625L19.5 8.71875L16.6875 5.90625L9.65625 12.9375L6.84375 10.125L4.03125 12.9375Z" fill="white"/>
<path d="M9.65625 13.4062L16.6875 6.375L19.2656 8.95312L19.5 8.71875L16.6875 5.90625L9.65625 12.9375L6.84375 10.125L4.03125 12.9375L4.26562 13.1719L6.84375 10.5938L9.65625 13.4062Z" fill="url(#paint2_linear_8483_1270)"/>
</g>
<defs>
<linearGradient id="paint0_linear_8483_1270" x1="1.21875" y1="13.652" x2="22.9032" y2="13.6182" gradientUnits="userSpaceOnUse">
<stop stop-color="#B436E0"/>
<stop offset="1" stop-color="#365CE0"/>
</linearGradient>
<linearGradient id="paint1_linear_8483_1270" x1="12" y1="-0.0937499" x2="12" y2="16.0499" gradientUnits="userSpaceOnUse">
<stop stop-color="white"/>
<stop offset="1" stop-color="white" stop-opacity="0.05"/>
</linearGradient>
<linearGradient id="paint2_linear_8483_1270" x1="11.7656" y1="13.4062" x2="11.7656" y2="5.90623" gradientUnits="userSpaceOnUse">
<stop stop-color="#9F2FFF"/>
<stop offset="1" stop-color="#0BB1D3"/>
</linearGradient>
<clipPath id="clip0_8483_1270">
<rect width="24" height="24" fill="white"/>
</clipPath>
</defs>
</svg>
