<svg width="38" height="38" viewBox="0 0 38 38" fill="none" xmlns="http://www.w3.org/2000/svg">
<g clip-path="url(#clip0_8483_1366)">
<path d="M17.8868 16.6953L11.5022 19.0579L11.5023 36.8868C11.5023 37.2725 11.702 37.6307 12.03 37.8336C12.358 38.0365 12.7676 38.0551 13.1127 37.883L17.8868 35.5003V16.6953Z" fill="#F4C23C"/>
<path d="M26.4979 19.0578L20.1133 16.6953V35.5003L24.8873 37.883C25.0442 37.9613 25.2145 38.0002 25.3844 38.0002C25.5881 38.0002 25.7912 37.9444 25.9701 37.8337C26.2981 37.6309 26.4977 37.2726 26.4977 36.8869L26.4979 19.0578Z" fill="#F4C23C"/>
<path d="M9.27562 18.2827C9.27562 18.2788 9.27614 18.2749 9.27621 18.271C9.27658 18.2374 9.27784 18.2037 9.28133 18.17C9.28155 18.1679 9.28193 18.1659 9.28215 18.1637C9.28534 18.1339 9.29009 18.1041 9.2958 18.0744C9.29796 18.0631 9.30033 18.0518 9.30286 18.0406C9.30441 18.0335 9.30553 18.0263 9.30731 18.0191L10.7699 12.0169L3.95361 7.34033V24.4116C3.95361 24.7785 4.13448 25.122 4.43707 25.3296L9.27562 28.6493V18.2827Z" fill="#F4C23C"/>
<path d="M27.2302 12.0169L28.6929 18.0192C28.6946 18.0263 28.6957 18.0335 28.6973 18.0407C28.6998 18.0519 28.7022 18.0632 28.7044 18.0745C28.71 18.1043 28.7147 18.134 28.718 18.1638C28.7182 18.1659 28.7186 18.168 28.7188 18.1701C28.7222 18.2038 28.7236 18.2374 28.724 18.271C28.724 18.275 28.7245 18.2788 28.7245 18.2828V28.6493L33.5631 25.3296C33.8657 25.122 34.0465 24.7786 34.0465 24.4116V7.34033L27.2302 12.0169Z" fill="#F4C23C"/>
<path d="M12.6633 10.6157C12.8779 10.7629 13.0287 10.9761 13.1 11.2145C13.1555 11.3999 13.163 11.6006 13.1151 11.7972L11.9662 16.5119L18.6137 14.0521C18.6449 14.0406 18.6764 14.0305 18.7083 14.0218C18.8993 13.9699 19.1008 13.9699 19.2918 14.0218C19.3237 14.0305 19.3552 14.0406 19.3864 14.0521L26.0339 16.5119L24.885 11.7972C24.8371 11.6005 24.8446 11.3999 24.9001 11.2145C24.9715 10.9761 25.1222 10.7629 25.3368 10.6157L32.6402 5.60485L23.8374 4.70458L19.8174 0.357437C19.6067 0.129586 19.3104 0 19 0C18.6896 0 18.3933 0.129586 18.1826 0.357437L14.1627 4.70458L5.35986 5.60485L12.6633 10.6157Z" fill="#F4C23C"/>
</g>
<defs>
<clipPath id="clip0_8483_1366">
<rect width="38" height="38" fill="white"/>
</clipPath>
</defs>
</svg>
