<svg width="32" height="32" viewBox="0 0 32 32" fill="none" xmlns="http://www.w3.org/2000/svg">
<path d="M19.3328 31.9999C20.4003 31.9999 21.3312 31.0834 21.3312 30.0324V25.4375H22.6656C23.4664 25.4375 24 24.9119 24 24.1238V11H8V24.1239C8 24.9121 8.53376 25.4376 9.33439 25.4376H10.6689V30.0325C10.6689 31.0835 11.5996 32 12.6673 32C13.7347 32 14.6656 31.0835 14.6656 30.0325V25.4376H17.3344V30.0325C17.3343 31.0834 18.2653 31.9999 19.3328 31.9999Z" fill="white"/>
<path d="M28.0001 24C29.0685 24 30 23.0922 30 22.0511V12.9481C30 11.9125 29.0685 11 28.0001 11C26.9316 11 26 11.9125 26 12.9481V22.0511C26 23.0921 26.9315 24 28.0001 24Z" fill="white"/>
<path d="M4.99989 24C6.0684 24 7 23.0922 7 22.0511V12.9481C7 11.9125 6.06851 11 4.99989 11C3.93149 11 3 11.9125 3 12.9481V22.0511C3 23.0921 3.93149 24 4.99989 24Z" fill="white"/>
<path d="M22.3986 0.19567C22.1319 -0.0652234 21.7347 -0.0652234 21.4679 0.19567L19.6782 1.92906L19.5956 2.00919C18.5344 1.49279 17.3446 1.2349 16.0195 1.23241C16.0131 1.23241 16.0067 1.2322 16.0002 1.2322H15.9999C15.9932 1.2322 15.9871 1.23241 15.9803 1.23241C14.6554 1.2349 13.4656 1.49279 12.4045 2.00919L12.3217 1.92906L10.5321 0.19567C10.2651 -0.0652234 9.86815 -0.0652234 9.60137 0.19567C9.33439 0.455114 9.33439 0.840139 9.60137 1.09938L11.3326 2.78204C10.7748 3.14397 10.2689 3.58687 9.82905 4.09344C8.77592 5.30649 8.10419 6.88521 8.01183 8.59572C8.01097 8.61353 8.00916 8.63113 8.00831 8.64893C8.00266 8.7654 8 8.88249 8 9H24C24 8.88249 23.9971 8.7654 23.9917 8.64893C23.9908 8.63113 23.989 8.61353 23.988 8.59572C23.8958 6.88521 23.2239 5.30639 22.1707 4.09354C21.7311 3.58698 21.225 3.14408 20.6672 2.78214L22.3986 1.09948C22.6656 0.840139 22.6656 0.455114 22.3986 0.19567ZM12.6648 6.73592C12.1127 6.73592 11.6651 6.30099 11.6651 5.76451C11.6651 5.22802 12.1127 4.79309 12.6648 4.79309C13.2169 4.79309 13.6644 5.22802 13.6644 5.76451C13.6644 6.30099 13.2169 6.73592 12.6648 6.73592ZM19.3352 6.73592C18.7831 6.73592 18.3356 6.30099 18.3356 5.76451C18.3356 5.22802 18.7831 4.79309 19.3352 4.79309C19.8873 4.79309 20.3349 5.22802 20.3349 5.76451C20.3349 6.30099 19.8873 6.73592 19.3352 6.73592Z" fill="white"/>
</svg>
