<svg width="32" height="32" viewBox="0 0 32 32" fill="none" xmlns="http://www.w3.org/2000/svg">
<path d="M21.9372 0C20.1244 0.122563 18.0057 1.25679 16.7709 2.73378C15.6446 4.07366 14.718 6.06376 15.0793 7.99776C17.06 8.058 19.1065 6.89677 20.2923 5.39485C21.4017 3.9968 22.2411 2.01917 21.9372 0Z" fill="white"/>
<path d="M28.0853 10.3109C26.4673 8.21582 24.1933 7 22.0458 7C19.2108 7 18.0116 8.40146 16.0419 8.40146C14.011 8.40146 12.468 7.00408 10.0163 7.00408C7.60803 7.00408 5.04368 8.52385 3.41775 11.1228C1.13196 14.7825 1.52314 21.6633 5.22742 27.5241C6.55305 29.6212 8.3232 31.9794 10.6386 31.9998C12.6992 32.0202 13.28 30.635 16.0716 30.6208C18.8631 30.6044 19.3926 32.0181 21.4492 31.9957C23.7666 31.9773 25.6336 29.3641 26.9592 27.2671C27.9095 25.7636 28.2631 25.0068 29 23.3095C23.6402 21.2022 22.7808 13.3321 28.0853 10.3109Z" fill="white"/>
</svg>
