<svg width="296" height="110" viewBox="0 0 296 110" fill="none" xmlns="http://www.w3.org/2000/svg">
<rect width="295.336" height="110" rx="12" fill="#25274D" fill-opacity="0.7"/>
<rect x="0.5" y="0.5" width="294.336" height="109" rx="11.5" stroke="#62D6FF" stroke-opacity="0.7"/>
<mask id="mask0_7753_4593" style="mask-type:luminance" maskUnits="userSpaceOnUse" x="105" y="60" width="22" height="24">
<path d="M105.178 65.8269C105.178 65.8269 122.471 78.1117 126.536 83.1434C126.536 83.1434 127.811 68.2863 115.627 62.0844C103.437 55.885 105.178 65.8269 105.178 65.8269Z" fill="white"/>
</mask>
<g mask="url(#mask0_7753_4593)">
<path d="M103.438 55.8851H127.811V83.1436H103.438V55.8851Z" fill="url(#paint0_linear_7753_4593)"/>
</g>
<mask id="mask1_7753_4593" style="mask-type:luminance" maskUnits="userSpaceOnUse" x="14" y="30" width="27" height="12">
<path d="M40.6426 41.0267L33.3314 30.3794C33.3314 30.3794 24.7415 37.0474 14.4074 36.4635C14.4074 36.4635 18.2409 39.7387 25.3193 41.2609C25.3193 41.2609 34.8319 36.3114 40.6426 41.0279V41.0267Z" fill="white"/>
</mask>
<g mask="url(#mask1_7753_4593)">
<path d="M14.4086 30.3794H40.6426V41.2597H14.4086V30.3794Z" fill="url(#paint1_linear_7753_4593)"/>
</g>
<mask id="mask2_7753_4593" style="mask-type:luminance" maskUnits="userSpaceOnUse" x="33" y="14" width="12" height="28">
<path d="M42.7306 41.0266L35.9984 36.3458L33.3326 30.3794C33.3326 30.3794 40.4109 24.2964 38.7861 14C38.7861 14 44.4761 20.668 44.8198 27.8046C44.8198 27.8046 37.9743 32.4843 42.7306 41.0254V41.0266Z" fill="white"/>
</mask>
<g mask="url(#mask2_7753_4593)">
<path d="M33.3326 14H44.8198V41.0266H33.3326V14Z" fill="url(#paint2_linear_7753_4593)"/>
</g>
<mask id="mask3_7753_4593" style="mask-type:luminance" maskUnits="userSpaceOnUse" x="33" y="30" width="72" height="39">
<path d="M104.483 43.7179L94.7331 43.0138C94.7331 43.0138 55.0372 57.8709 33.334 30.3782C33.334 30.3782 36.9299 56.7007 64.7887 68.8702L82.7778 63.9563L104.483 43.7167V43.7179Z" fill="white"/>
</mask>
<g mask="url(#mask3_7753_4593)">
<path d="M33.3328 30.38H104.483V68.872H33.3328V30.38Z" fill="url(#paint3_linear_7753_4593)"/>
</g>
<mask id="mask4_7753_4593" style="mask-type:luminance" maskUnits="userSpaceOnUse" x="64" y="23" width="70" height="50">
<path d="M84.8679 63.4876L64.7872 68.8714C64.7872 68.8714 96.7062 79.867 118.988 64.074C141.275 48.2797 131.875 23.9443 131.875 23.9443L84.8679 63.4876Z" fill="white"/>
</mask>
<g mask="url(#mask4_7753_4593)">
<path d="M64.7871 23.9443H141.275V79.867H64.7871V23.9443Z" fill="url(#paint4_linear_7753_4593)"/>
</g>
<mask id="mask5_7753_4593" style="mask-type:luminance" maskUnits="userSpaceOnUse" x="80" y="52" width="24" height="41">
<path d="M103.438 57.054C103.438 57.054 107.732 86.6529 80.2229 92.3862C80.2229 92.3862 88.4446 83.747 90.5546 63.722C92.6634 43.6995 103.439 57.054 103.439 57.054H103.438Z" fill="white"/>
</mask>
<g mask="url(#mask5_7753_4593)">
<path d="M80.2217 43.6995H107.732V92.3861H80.2217V43.6995Z" fill="url(#paint5_linear_7753_4593)"/>
</g>
<mask id="mask6_7753_4593" style="mask-type:luminance" maskUnits="userSpaceOnUse" x="64" y="23" width="68" height="47">
<path d="M131.875 23.9443C131.875 23.9443 114.698 75.6571 64.7871 68.8713C64.7871 68.8713 82.3118 60.3302 94.7315 43.0137C94.7315 43.0137 102.74 40.7923 131.875 23.9443Z" fill="white"/>
</mask>
<g mask="url(#mask6_7753_4593)">
<path d="M64.7871 23.9443H131.875V75.6571H64.7871V23.9443Z" fill="url(#paint6_linear_7753_4593)"/>
</g>
<path d="M181.949 71.2815C185.658 72.535 187.564 74.2324 187.643 76.4C187.199 82.0929 185.083 84.9394 181.296 84.9394H171.684L168.158 74.9375C171.292 79.0898 174.636 81.1789 178.136 81.2311C179.912 80.7611 180.774 79.5337 180.774 77.549C173.016 75.0159 169.151 71.1509 169.151 65.9541C169.151 61.6713 172.05 59.2949 177.874 58.8248C183.699 58.3548 186.598 59.7127 186.598 62.8726C185.893 65.7713 184.613 67.2337 182.759 67.2598L179.938 64.8834C181.479 63.5516 181.4 62.5331 179.703 61.8019C177.378 62.5853 176.229 63.6822 176.229 65.0923C176.333 67.9388 178.24 70.0019 181.949 71.2293V71.2815Z" fill="#62D6FF"/>
<path d="M263.32 71.2815C267.029 72.535 268.936 74.2324 269.014 76.4C268.57 82.0929 266.455 84.9394 262.667 84.9394H253.056L249.53 74.9375C252.664 79.0898 256.007 81.1789 259.507 81.2311C261.283 80.7611 262.145 79.5337 262.145 77.549C254.388 75.0159 250.522 71.1509 250.522 65.9541C250.522 61.6713 253.421 59.2949 259.246 58.8248C265.07 58.3548 267.97 59.7127 267.97 62.8726C267.264 65.7713 265.985 67.2337 264.13 67.2598L261.309 64.8834C262.85 63.5516 262.772 62.5331 261.074 61.8019C258.75 62.5853 257.6 63.6822 257.6 65.0923C257.705 67.9388 259.612 70.0019 263.32 71.2293V71.2815Z" fill="#62D6FF"/>
<path d="M199.396 79.1171C199.448 79.77 199.553 80.3445 199.683 80.8407C203.209 80.5012 206.474 79.7961 209.452 78.7515C207.728 80.6579 206.709 82.7471 206.344 85.0451C205.377 85.0451 204.463 85.0451 203.601 85.0451H192.057V84.7318C192.37 84.34 192.605 83.8961 192.762 83.426V83.191C192.814 82.4076 192.866 81.4674 192.866 80.3967C192.866 66.7388 192.422 59.8185 191.508 59.5834L199.736 58.2516L199.422 63.9707V79.1432L199.396 79.1171Z" fill="#62D6FF"/>
<path d="M220.944 58.7212C224.94 58.7212 227.291 61.4632 227.996 66.9473V73.6848C227.996 81.232 225.645 85.0186 220.944 85.0186H216.347C212.351 85.0186 210 82.2765 209.295 76.7925V70.0549C209.295 62.5078 211.646 58.7212 216.347 58.7212H220.944ZM217.783 62.8473C217.444 63.0823 216.948 63.1868 216.347 63.1868V77.8632C216.347 79.6129 217.339 80.6574 219.272 81.0492C219.768 80.8141 220.317 80.7097 220.918 80.7097V66.0333C220.918 64.2836 219.873 63.239 217.757 62.8473H217.783Z" fill="#62D6FF"/>
<path d="M241.316 63.3961V63.5528C241.316 77.2107 241.76 84.1311 242.674 84.3661L234.447 85.698L234.761 79.9789V64.8063C234.708 64.1534 234.604 63.5789 234.473 63.0827C232.984 63.4222 230.738 64.1273 227.761 65.1719C229.485 63.2655 230.503 61.1764 230.869 58.8783C231.835 58.8783 232.749 58.8783 233.611 58.8783H242.1H242.309C243.171 58.8783 244.085 58.8783 245.051 58.8783C245.417 61.1764 246.436 63.2655 248.159 65.1719C245.182 64.1273 242.936 63.4222 241.447 63.0827C241.421 63.2133 241.395 63.3439 241.342 63.4745L241.264 63.37L241.316 63.3961Z" fill="#62D6FF"/>
<path d="M168.556 30.2831V30.4398C168.556 44.0977 169 51.0181 169.914 51.2531L161.686 52.5849L162 46.8658V31.6933C161.948 31.0404 161.843 30.4659 161.712 29.9697C160.224 30.3092 157.978 31.0143 155 32.0589C156.724 30.1525 157.742 28.0633 158.108 25.7653C159.075 25.7653 159.989 25.7653 160.851 25.7653H169.339H169.548C170.41 25.7653 171.324 25.7653 172.291 25.7653C172.656 28.0633 173.675 30.1525 175.399 32.0589C172.421 31.0143 170.175 30.3092 168.686 29.9697C168.66 30.1003 168.634 30.2309 168.582 30.3614L168.503 30.257L168.556 30.2831Z" fill="white"/>
<path d="M187.935 41.8507V46.8908L189.555 50.3379L180.439 47.2825V46.9692C181.066 46.1857 181.38 45.2456 181.38 44.1749V29.4202H181.066C179.395 29.7335 178.559 30.3603 178.559 31.2743C178.324 31.2743 177.723 30.0208 176.704 27.5138C176.574 27.5138 176.051 26.8871 175.137 25.6597H191.07C195.588 25.6597 198.2 27.9316 198.879 32.4495C198.67 36.0533 196.737 38.4036 193.133 39.5004C195.875 44.3055 200.133 49.5023 205.905 55.1169L193.995 51.9048C194.752 50.4424 192.741 47.0997 187.961 41.8768L187.935 41.8507ZM192.167 33.024C191.801 30.6214 190.599 29.4202 188.536 29.4202H186.029V29.7335L187.909 30.3603V37.4112C190.678 37.2807 192.088 35.8182 192.14 33.024H192.167Z" fill="white"/>
<path d="M210.79 27.7492V45.9772C210.998 48.1447 211.025 50.495 210.894 53.0281L203.293 50.3383V50.0249C203.92 49.2415 204.234 48.3014 204.234 47.2307V26.104L211.495 26.0779L210.79 27.7492Z" fill="white"/>
<path d="M228.132 30.2831V30.4398C228.132 44.0977 228.576 51.0181 229.49 51.2531L221.263 52.5849L221.576 46.8658V31.6933C221.524 31.0404 221.42 30.4659 221.289 29.9697C219.8 30.3092 217.554 31.0143 214.577 32.0589C216.3 30.1525 217.319 28.0633 217.685 25.7653C218.651 25.7653 219.565 25.7653 220.427 25.7653H228.916H229.125C229.987 25.7653 230.901 25.7653 231.867 25.7653C232.233 28.0633 233.251 30.1525 234.975 32.0589C231.998 31.0143 229.752 30.3092 228.263 29.9697C228.237 30.1003 228.211 30.2309 228.158 30.3614L228.08 30.257L228.132 30.2831Z" fill="white"/>
<path d="M249.994 25.6082C253.99 25.6082 256.34 28.3502 257.046 33.8342V40.5718C257.046 48.1189 254.695 51.9055 249.994 51.9055H245.397C241.401 51.9055 239.05 49.1635 238.345 43.6794V36.9419C238.345 29.3948 240.695 25.6082 245.397 25.6082H249.994ZM246.833 29.7343C246.494 29.9693 245.997 30.0737 245.397 30.0737V44.7501C245.397 46.4998 246.389 47.5444 248.322 47.9361C248.818 47.7011 249.367 47.5966 249.968 47.5966V32.8941C249.968 31.1444 248.923 30.0999 246.807 29.7081L246.833 29.7343Z" fill="white"/>
<path d="M274.049 36.4192V26.1039L281.336 26.0778L280.63 27.7491V47.6745C280.839 49.8421 280.866 52.1924 280.735 54.7255L273.134 52.0357V51.7223C273.761 50.9389 274.075 49.9987 274.075 48.928V47.1523L269.922 40.3625V44.4363C270.131 46.6038 270.157 48.9542 270.026 51.4873L262.426 48.7975V48.4841C263.053 47.7007 263.366 46.7605 263.366 45.6898V26.1039L266.474 24.302L274.075 36.4192H274.049Z" fill="white"/>
<defs>
<linearGradient id="paint0_linear_7753_4593" x1="131.039" y1="88.7542" x2="114.591" y2="68.4822" gradientUnits="userSpaceOnUse">
<stop stop-color="#30ADE0"/>
<stop offset="1" stop-color="#000001"/>
</linearGradient>
<linearGradient id="paint1_linear_7753_4593" x1="14.756" y1="35.335" x2="45.8882" y2="36.5015" gradientUnits="userSpaceOnUse">
<stop stop-color="#0999CC"/>
<stop offset="1" stop-color="#000001"/>
</linearGradient>
<linearGradient id="paint2_linear_7753_4593" x1="39.153" y1="21.0127" x2="38.8851" y2="43.2443" gradientUnits="userSpaceOnUse">
<stop stop-color="#0BB1D3"/>
<stop offset="1" stop-color="#000001"/>
</linearGradient>
<linearGradient id="paint3_linear_7753_4593" x1="40.1576" y1="46.2393" x2="148.338" y2="58.823" gradientUnits="userSpaceOnUse">
<stop stop-color="#3E7AA8"/>
<stop offset="1" stop-color="#000001"/>
</linearGradient>
<linearGradient id="paint4_linear_7753_4593" x1="138.424" y1="36.6425" x2="57.234" y2="71.2167" gradientUnits="userSpaceOnUse">
<stop stop-color="white"/>
<stop offset="1" stop-color="#000001"/>
</linearGradient>
<linearGradient id="paint5_linear_7753_4593" x1="90.3621" y1="90.9044" x2="97.0085" y2="49.4053" gradientUnits="userSpaceOnUse">
<stop stop-color="#5DB0ED"/>
<stop offset="1" stop-color="#000001"/>
</linearGradient>
<linearGradient id="paint6_linear_7753_4593" x1="94.8315" y1="65.5361" x2="106.023" y2="15.8516" gradientUnits="userSpaceOnUse">
<stop stop-color="#328FDF"/>
<stop offset="1" stop-color="#8DD7F7"/>
</linearGradient>
</defs>
</svg>
