<svg width="49" height="48" viewBox="0 0 49 48" fill="none" xmlns="http://www.w3.org/2000/svg">
<path d="M23.0321 22.8986L6.65234 40.2848C6.65296 40.2884 6.65419 40.2914 6.65477 40.2951C7.15712 42.183 8.88151 43.5732 10.928 43.5732C11.7461 43.5732 12.5142 43.352 13.1729 42.9637L13.2252 42.9331L31.6637 32.2932L23.033 22.8984" fill="#EB3131"/>
<path d="M39.6048 19.9381L39.5891 19.9274L31.6287 15.3125L22.6602 23.2931L31.6598 32.2917L39.5783 27.7227C40.9665 26.9733 41.909 25.5097 41.909 23.822C41.909 22.1464 40.9792 20.6901 39.6047 19.9382" fill="#F6B60B"/>
<path d="M6.65023 7.28906C6.55176 7.65218 6.5 8.03253 6.5 8.4275V39.1505C6.5 39.5447 6.55115 39.9263 6.65085 40.2882L23.5961 23.3463L6.65085 7.2895" fill="#5778C5"/>
<path d="M23.1545 23.7871L31.6332 15.3108L13.2155 4.63238C12.546 4.23141 11.7647 4 10.9286 4C8.88213 4 7.15541 5.39265 6.65296 7.28279C6.65234 7.28463 6.65234 7.2859 6.65234 7.28752L23.1545 23.7874" fill="#3BAD49"/>
</svg>
