<svg width="40" height="40" viewBox="0 0 40 40" fill="none" xmlns="http://www.w3.org/2000/svg">
<circle cx="20" cy="20" r="20" fill="#F4525C"/>
<path d="M8.378 17.006V14.78H12.256V25H9.764V17.006H8.378ZM15.5737 19.512C14.6963 19.0453 14.2577 18.3127 14.2577 17.314C14.2577 16.81 14.3883 16.3527 14.6497 15.942C14.911 15.522 15.3077 15.1907 15.8397 14.948C16.3717 14.696 17.025 14.57 17.7997 14.57C18.5743 14.57 19.223 14.696 19.7457 14.948C20.2777 15.1907 20.6743 15.522 20.9357 15.942C21.197 16.3527 21.3277 16.81 21.3277 17.314C21.3277 17.818 21.2063 18.2567 20.9637 18.63C20.7303 19.0033 20.413 19.2973 20.0117 19.512C20.5157 19.7547 20.903 20.0907 21.1737 20.52C21.4443 20.94 21.5797 21.4347 21.5797 22.004C21.5797 22.6667 21.4117 23.2407 21.0757 23.726C20.7397 24.202 20.2823 24.566 19.7037 24.818C19.1343 25.07 18.4997 25.196 17.7997 25.196C17.0997 25.196 16.4603 25.07 15.8817 24.818C15.3123 24.566 14.8597 24.202 14.5237 23.726C14.1877 23.2407 14.0197 22.6667 14.0197 22.004C14.0197 21.4253 14.155 20.926 14.4257 20.506C14.6963 20.0767 15.079 19.7453 15.5737 19.512ZM19.0037 17.678C19.0037 17.2953 18.8917 17.0013 18.6677 16.796C18.453 16.5813 18.1637 16.474 17.7997 16.474C17.4357 16.474 17.1417 16.5813 16.9177 16.796C16.703 17.0107 16.5957 17.3093 16.5957 17.692C16.5957 18.056 16.7077 18.3453 16.9317 18.56C17.1557 18.7653 17.445 18.868 17.7997 18.868C18.1543 18.868 18.4437 18.7607 18.6677 18.546C18.8917 18.3313 19.0037 18.042 19.0037 17.678ZM17.7997 20.548C17.361 20.548 17.0063 20.6693 16.7357 20.912C16.465 21.1453 16.3297 21.472 16.3297 21.892C16.3297 22.284 16.4603 22.606 16.7217 22.858C16.9923 23.11 17.3517 23.236 17.7997 23.236C18.2477 23.236 18.5977 23.11 18.8497 22.858C19.111 22.606 19.2417 22.284 19.2417 21.892C19.2417 21.4813 19.1063 21.1547 18.8357 20.912C18.5743 20.6693 18.229 20.548 17.7997 20.548ZM30.3078 21.178H27.8718V23.67H25.6038V21.178H23.1678V19.036H25.6038V16.53H27.8718V19.036H30.3078V21.178Z" fill="white"/>
</svg>
