<svg width="42" height="42" viewBox="0 0 42 42" fill="none" xmlns="http://www.w3.org/2000/svg">
<path d="M38.8389 10.0479L21.6124 0.16316C21.2331 -0.0543867 20.7668 -0.0543867 20.3876 0.16316L3.16099 10.0479C2.77873 10.2674 2.54297 10.6745 2.54297 11.1152V30.8848C2.54297 31.3255 2.77873 31.7326 3.16107 31.9521L20.3876 41.8368C20.5773 41.9456 20.7887 42 21 42C21.2113 42 21.4228 41.9456 21.6124 41.8368L38.8389 31.9521C39.2213 31.7326 39.457 31.3255 39.457 30.8848V11.1152C39.457 10.6745 39.2213 10.2674 38.8389 10.0479Z" fill="#283D93"/>
<path d="M38.8389 10.0479L21.6124 0.16316C21.4228 0.0543867 21.2114 0 21 0V42C21.2114 42 21.4228 41.9456 21.6124 41.8368L38.8389 31.9521C39.2213 31.7326 39.457 31.3255 39.457 30.8848V11.1152C39.457 10.6745 39.2213 10.2674 38.8389 10.0479Z" fill="#283D93"/>
<path d="M28.5912 18.4148L21.9282 10.7586C21.6945 10.4901 21.356 10.3359 21 10.3359C20.6441 10.3359 20.3055 10.4901 20.0718 10.7586L13.4089 18.4148C13.0923 18.7786 13.0174 19.2937 13.2172 19.7325C13.4171 20.1714 13.8549 20.453 14.337 20.453H16.8985V26.332C16.8985 27.0116 17.4494 27.5625 18.1289 27.5625H23.8711C24.5507 27.5625 25.1016 27.0116 25.1016 26.332V20.4531H27.663C28.1452 20.4531 28.583 20.1714 28.7828 19.7326C28.9827 19.2937 28.9078 18.7786 28.5912 18.4148Z" fill="#F9F9F9"/>
<path d="M23.8711 31.6641H18.1289C17.4494 31.6641 16.8984 31.1131 16.8984 30.4336C16.8984 29.754 17.4494 29.2031 18.1289 29.2031H23.8711C24.5506 29.2031 25.1016 29.754 25.1016 30.4336C25.1016 31.1131 24.5506 31.6641 23.8711 31.6641Z" fill="#F9F9F9"/>
<path d="M28.5912 18.4148L21.9282 10.7586C21.6945 10.4901 21.3559 10.3359 21 10.3359V27.5625H23.8711C24.5506 27.5625 25.1016 27.0116 25.1016 26.332V20.4531H27.663C28.1452 20.4531 28.583 20.1714 28.7828 19.7326C28.9827 19.2937 28.9077 18.7786 28.5912 18.4148Z" fill="#DFE4EA"/>
<path d="M23.8711 29.2031H21V31.6641H23.8711C24.5506 31.6641 25.1016 31.1131 25.1016 30.4336C25.1016 29.754 24.5506 29.2031 23.8711 29.2031Z" fill="#DFE4EA"/>
</svg>
