<svg width="20" height="20" viewBox="0 0 20 20" fill="none" xmlns="http://www.w3.org/2000/svg">
<path d="M19.704 7.58007L17.1629 9.02224C16.8344 9.22014 16.3723 9.01382 16.3007 8.63696C16.0218 7.33585 15.3175 6.11685 14.3312 5.22523C14.0459 4.97996 14.0891 4.48731 14.4133 4.29572L16.8755 2.74513C15.7207 1.65034 14.3059 0.827149 12.7343 0.379761V3.30305C12.7406 3.6178 12.4616 3.89675 12.1479 3.88939C12.0879 3.88939 12.0279 3.87991 11.969 3.86202C10.7036 3.45252 9.29516 3.45252 8.02984 3.86202C7.66456 3.98834 7.25613 3.69043 7.26455 3.30305V0.379761C5.64342 0.840833 4.18862 1.70298 3.01384 2.85039L5.56132 4.27993C5.90554 4.46415 5.96238 4.96943 5.66764 5.22523C4.68128 6.11685 3.97704 7.3369 3.69808 8.63696C3.62755 9.01171 3.16858 9.22014 2.84014 9.02435L0.289508 7.60007C-0.0873505 9.09277 -0.0968246 10.7971 0.264244 12.2961L2.85804 10.9665C3.18648 10.7886 3.6286 10.9971 3.69808 11.3644C3.97704 12.6645 4.68128 13.8846 5.66764 14.7762C5.95607 15.0236 5.9087 15.5225 5.57816 15.7109L3.08752 17.2226C4.24968 18.3342 5.67711 19.169 7.26455 19.6216V16.6973C7.25718 16.3099 7.66351 16.0131 8.02984 16.1394C9.29516 16.5478 10.7036 16.5478 11.969 16.1394C12.3353 16.0131 12.7427 16.3099 12.7343 16.6973V19.6216C14.2922 19.1774 15.6975 18.3647 16.8471 17.2836L14.4059 15.7015C14.088 15.5067 14.048 15.0193 14.3312 14.7762C15.3175 13.8846 16.0218 12.6645 16.3007 11.3644C16.3744 10.9834 16.8376 10.7792 17.1681 10.9823L19.6956 12.454C20.0967 10.9055 20.0998 9.13067 19.704 7.58007ZM9.9994 15.392C7.02664 15.392 4.60864 12.9729 4.60864 10.0002C4.87918 2.85882 15.1207 2.85987 15.3902 10.0002C15.3902 12.9729 12.9722 15.392 9.9994 15.392Z" fill="url(#paint0_linear_7775_415)"/>
<path d="M9.9991 5.78101C7.67268 5.78101 5.77997 7.67372 5.77997 10.0001C5.99261 15.5899 14.0077 15.5888 14.2182 10.0001C14.2182 7.67372 12.3255 5.78101 9.9991 5.78101Z" fill="#0BB1D3"/>
<path fill-rule="evenodd" clip-rule="evenodd" d="M11.5629 0.120795V2.543C10.5408 2.32931 9.45863 2.32931 8.43753 2.543V0.120795C9.45126 -0.0402649 10.5492 -0.0402649 11.5629 0.120795ZM2.74857 12.3392C2.91384 12.8487 3.13174 13.3414 3.40228 13.8088C3.66861 14.2709 3.98125 14.7004 4.3339 15.0941L2.27381 16.3447C1.56536 15.4836 0.997965 14.5025 0.607422 13.4361L2.74857 12.3392ZM15.6498 15.1109C16.0088 14.713 16.3267 14.2772 16.5962 13.8087C16.8604 13.3529 17.0741 12.8739 17.2372 12.3781L19.331 13.5971C18.932 14.6298 18.3647 15.5814 17.6646 16.4162L15.6498 15.1109ZM8.43753 17.4573V19.8784C9.45126 20.0405 10.5492 20.0405 11.5629 19.8784V17.4573C10.5408 17.671 9.45863 17.671 8.43753 17.4573ZM3.40199 6.19056C3.66411 5.73685 3.97044 5.31368 4.31677 4.92524L2.2051 3.73992C1.55244 4.55154 1.02294 5.46631 0.647136 6.45688L2.7567 7.63483C2.92092 7.13481 3.13672 6.65163 3.40199 6.19056ZM17.2406 7.63065C17.0774 7.13168 16.8616 6.64955 16.5963 6.19164C16.3279 5.72635 16.0132 5.29265 15.6563 4.89684L17.6922 3.61574C18.387 4.45261 18.9491 5.40423 19.3449 6.43691L17.2406 7.63065Z" fill="#0BB1D3"/>
<defs>
<linearGradient id="paint0_linear_7775_415" x1="9.99933" y1="19.6216" x2="9.99933" y2="0.379699" gradientUnits="userSpaceOnUse">
<stop stop-color="#9F2FFF"/>
<stop offset="1" stop-color="#0BB1D3"/>
</linearGradient>
</defs>
</svg>
