<svg width="21" height="20" viewBox="0 0 21 20" fill="none" xmlns="http://www.w3.org/2000/svg">
<path d="M0.58196 16.4279C1.57499 16.9258 2.75979 16.9258 3.75212 16.4279C4.45645 16.0743 5.29815 16.0743 6.00248 16.4279C6.99551 16.9265 8.18031 16.9265 9.17264 16.4279C9.87697 16.0743 10.7187 16.0743 11.423 16.4279C11.9195 16.6768 12.4634 16.8017 13.0081 16.8017C13.5527 16.8017 14.0966 16.6768 14.5932 16.4279C15.2975 16.0743 16.1392 16.0743 16.8435 16.4279C17.8358 16.9258 19.0213 16.9258 20.0137 16.4279C20.2668 16.3009 20.3693 15.9927 20.2424 15.7395C20.1155 15.4864 19.8066 15.3846 19.5541 15.5108C18.8498 15.8651 18.0088 15.8644 17.3038 15.5108C16.3114 15.0128 15.1259 15.0128 14.1336 15.5108C13.4293 15.8651 12.5883 15.8644 11.8832 15.5108C10.8909 15.0135 9.70612 15.0128 8.71309 15.5108C8.00876 15.8651 7.16775 15.8644 6.46273 15.5108C5.4704 15.0135 4.2856 15.0128 3.29257 15.5108C2.58824 15.8651 1.74724 15.8651 1.04221 15.5108C0.789073 15.3839 0.480844 15.4857 0.353926 15.7395C0.227007 15.9927 0.329518 16.3009 0.582657 16.4279H0.58196Z" fill="#0BB1D3"/>
<path d="M19.5541 17.5779C18.8498 17.9314 18.0081 17.9314 17.3038 17.5779C16.3114 17.0799 15.1259 17.0806 14.1336 17.5779C13.4293 17.9314 12.5883 17.9314 11.8832 17.5779C10.8909 17.0799 9.70542 17.0799 8.71309 17.5779C8.00876 17.9314 7.16706 17.9314 6.46273 17.5779C5.4704 17.0799 4.2849 17.0799 3.29257 17.5779C2.58824 17.9314 1.74654 17.9314 1.04221 17.5779C0.789771 17.4509 0.480844 17.5535 0.353926 17.8066C0.227007 18.0598 0.329518 18.368 0.582657 18.4949C1.57499 18.9929 2.76049 18.9929 3.75282 18.4949C4.45715 18.1414 5.29885 18.1414 6.00318 18.4949C6.99551 18.9929 8.18101 18.9929 9.17334 18.4949C9.87766 18.1414 10.7194 18.1414 11.4237 18.4949C11.9202 18.7439 12.4641 18.8681 13.0088 18.8681C13.5534 18.8681 14.098 18.7432 14.5939 18.4949C15.2982 18.1414 16.1392 18.1414 16.8442 18.4949C17.8365 18.9929 19.022 18.9929 20.0144 18.4949C20.2675 18.368 20.37 18.0598 20.2431 17.8066C20.1162 17.5535 19.808 17.4509 19.5548 17.5779H19.5541Z" fill="#0BB1D3"/>
<path d="M18.1279 11.4645C18.0253 11.3243 17.8615 11.242 17.6829 11.2559L10.5086 11.6695V1.51329C10.5086 1.23293 10.2799 1 9.99534 1C9.71082 1 9.48209 1.23223 9.48209 1.51329V11.7316L2.85166 12.1144C2.68081 12.1249 2.52669 12.2204 2.44162 12.3676C2.35305 12.5148 2.34608 12.6961 2.42139 12.853L3.19406 14.4326C4.3942 13.957 5.76241 14.0086 6.92141 14.5937C7.3454 14.8057 7.83076 14.8057 8.25196 14.5937C9.53439 13.9507 11.063 13.9507 12.3419 14.5937C12.7659 14.8057 13.2513 14.8057 13.6725 14.5937C14.7938 14.033 16.1034 13.9612 17.2701 14.3817L18.1934 11.9506C18.2548 11.7867 18.2311 11.6053 18.1286 11.4652L18.1279 11.4645Z" fill="url(#paint0_linear_7775_239)"/>
<path d="M3.73077 11.2637C3.73426 11.2637 3.73775 11.2637 3.74124 11.2637C5.60805 11.1877 8.33121 10.9848 8.3584 10.9827C8.4923 10.9729 8.5955 10.8613 8.5955 10.7267V3.26873C8.5955 3.17179 8.54041 3.08322 8.45394 3.03929C8.36677 2.99535 8.26356 3.00442 8.18546 3.063C8.01112 3.19341 3.90023 6.3066 3.47485 10.9841C3.46787 11.058 3.49368 11.1305 3.54458 11.1842C3.5934 11.2351 3.66034 11.2637 3.73008 11.2637H3.73077Z" fill="url(#paint1_linear_7775_239)"/>
<path d="M16.9823 10.3765C16.9342 10.44 16.8624 10.4798 16.7842 10.4839C15.2466 10.5558 13.0604 10.6827 11.6266 10.7671C11.5011 10.7748 11.3951 10.6743 11.3951 10.5488V3.0671C11.3951 2.89345 11.5876 2.78744 11.7326 2.88299C13.3616 3.9535 15.8854 6.1789 17.02 10.1555C17.0388 10.2294 17.0262 10.311 16.9823 10.3765Z" fill="url(#paint2_linear_7775_239)"/>
<defs>
<linearGradient id="paint0_linear_7775_239" x1="10.2983" y1="14.7527" x2="10.2983" y2="0.999956" gradientUnits="userSpaceOnUse">
<stop stop-color="#9F2FFF"/>
<stop offset="1" stop-color="#0BB1D3"/>
</linearGradient>
<linearGradient id="paint1_linear_7775_239" x1="6.03461" y1="11.2637" x2="6.03461" y2="3.01169" gradientUnits="userSpaceOnUse">
<stop stop-color="#9F2FFF"/>
<stop offset="1" stop-color="#0BB1D3"/>
</linearGradient>
<linearGradient id="paint2_linear_7775_239" x1="14.2118" y1="10.7675" x2="14.2118" y2="2.84696" gradientUnits="userSpaceOnUse">
<stop stop-color="#9F2FFF"/>
<stop offset="1" stop-color="#0BB1D3"/>
</linearGradient>
</defs>
</svg>
