<svg width="20" height="20" viewBox="0 0 20 20" fill="none" xmlns="http://www.w3.org/2000/svg">
<g clip-path="url(#clip0_7775_266)">
<path d="M9.99888 13.8277C10.3015 13.8277 10.5461 13.583 10.5461 13.2804C10.5461 12.9778 10.3015 12.7332 9.99888 12.7332C9.6963 12.7332 9.45267 12.9778 9.45267 13.2804C9.45267 13.583 9.69728 13.8277 9.99888 13.8277Z" fill="#0BB1D3"/>
<path d="M9.99888 7.26487C10.3015 7.26487 10.5461 7.02023 10.5461 6.71764C10.5461 6.41504 10.3015 6.17041 9.99888 6.17041C9.6963 6.17041 9.45267 6.41504 9.45267 6.71764C9.45267 7.02023 9.69728 7.26487 9.99888 7.26487Z" fill="#0BB1D3"/>
<path d="M6.71882 10.5474C7.02042 10.5474 7.26503 10.3028 7.26503 10.0002C7.26503 9.69757 7.02042 9.45294 6.71882 9.45294C6.41723 9.45294 6.17163 9.69757 6.17163 10.0002C6.17163 10.3028 6.41625 10.5474 6.71882 10.5474Z" fill="#0BB1D3"/>
<path d="M9.99934 3.94806C6.66216 3.94806 3.94781 6.66357 3.94781 9.99999C3.94781 13.3364 6.66216 16.0519 9.99934 16.0519C13.3365 16.0519 16.0509 13.3364 16.0509 9.99999C16.0509 6.66357 13.3365 3.94806 9.99934 3.94806ZM13.2805 11.6407C12.5673 11.6407 11.9592 11.1838 11.7342 10.5472H10.5465V11.735C11.1831 11.961 11.6399 12.5691 11.6399 13.2814C11.6399 14.1862 10.9041 14.9221 9.99934 14.9221C9.09456 14.9221 8.35875 14.1862 8.35875 13.2814C8.35875 12.5681 8.81556 11.961 9.45215 11.735V10.5472H8.26444C8.03947 11.1838 7.43137 11.6407 6.71816 11.6407C5.81337 11.6407 5.07756 10.9048 5.07756 9.99999C5.07756 9.09515 5.81337 8.35929 6.71816 8.35929C7.43137 8.35929 8.03947 8.81613 8.26444 9.45276H9.45215V8.26497C8.81556 8.03901 8.35875 7.43185 8.35875 6.71859C8.35875 5.81374 9.09456 5.07788 9.99934 5.07788C10.9041 5.07788 11.6399 5.81374 11.6399 6.71859C11.6399 7.43185 11.1831 8.03901 10.5465 8.26497V9.45276H11.7342C11.9592 8.81613 12.5673 8.35929 13.2805 8.35929C14.1853 8.35929 14.9211 9.09515 14.9211 9.99999C14.9211 10.9048 14.1853 11.6407 13.2805 11.6407Z" fill="url(#paint0_linear_7775_266)"/>
<path d="M13.2799 10.5474C13.5825 10.5474 13.8271 10.3028 13.8271 10.0002C13.8271 9.69757 13.5825 9.45294 13.2799 9.45294C12.9773 9.45294 12.7337 9.69757 12.7337 10.0002C12.7337 10.3028 12.9783 10.5474 13.2799 10.5474Z" fill="#0BB1D3"/>
<path fill-rule="evenodd" clip-rule="evenodd" d="M6.90949 3.55707L5.8043 1.64227C6.91244 1.08521 8.14632 0.742336 9.45094 0.666687V2.87525C8.54714 2.94402 7.68951 3.18177 6.90949 3.55707ZM15.8926 5.96603C15.3926 5.23803 14.7609 4.60631 14.0329 4.10624L15.1391 2.19045C16.1991 2.88996 17.1088 3.79971 17.8082 4.85978L15.8926 5.96603ZM9.45094 19.3331C8.14632 19.2575 6.91244 18.9146 5.8043 18.3575L6.90949 16.4427C7.68951 16.818 8.54714 17.0558 9.45094 17.1246V19.3331ZM16.4416 13.0879L18.3553 14.1931C18.9123 13.0849 19.2562 11.8519 19.3308 10.5462H17.1234C17.0546 11.4501 16.8169 12.3078 16.4416 13.0879ZM13.0876 16.4427L14.1928 18.3575C13.0857 18.9146 11.8518 19.2575 10.5462 19.3331V17.1246C11.451 17.0558 12.3086 16.818 13.0876 16.4427ZM16.4416 6.91127C16.8169 7.69134 17.0546 8.54903 17.1234 9.45289H19.3308C19.2562 8.1472 18.9123 6.91324 18.3553 5.80601L16.4416 6.91127ZM4.10562 14.0352C4.60566 14.7632 5.23636 15.3949 5.96529 15.895L4.85912 17.8108C3.79814 17.1112 2.88942 16.2015 2.18996 15.1414L4.10562 14.0352ZM1.64214 5.80601C1.08512 6.91422 0.74227 8.1472 0.666626 9.45289H2.87504C2.94381 8.54903 3.18155 7.69134 3.55682 6.91127L1.64214 5.80601ZM14.0329 15.895C14.7609 15.3949 15.3926 14.7632 15.8926 14.0352L17.8082 15.1414C17.1088 16.2015 16.1991 17.1112 15.1391 17.8108L14.0329 15.895ZM2.87504 10.5462H0.666626C0.74227 11.8519 1.08512 13.0859 1.64214 14.1931L3.55682 13.0879C3.18155 12.3078 2.94381 11.4501 2.87504 10.5462ZM14.1928 1.64227C13.0857 1.08521 11.8518 0.742336 10.5462 0.666687V2.87525C11.451 2.94402 12.3086 3.18177 13.0876 3.55707L14.1928 1.64227ZM5.96529 4.10624C5.23636 4.60631 4.60566 5.23803 4.10562 5.96603L2.18996 4.85978C2.88942 3.79971 3.79814 2.88996 4.85912 2.19045L5.96529 4.10624Z" fill="url(#paint1_linear_7775_266)"/>
</g>
<defs>
<linearGradient id="paint0_linear_7775_266" x1="9.99934" y1="16.0519" x2="9.99934" y2="3.94802" gradientUnits="userSpaceOnUse">
<stop stop-color="#9F2FFF"/>
<stop offset="1" stop-color="#0BB1D3"/>
</linearGradient>
<linearGradient id="paint1_linear_7775_266" x1="9.99873" y1="19.3331" x2="9.99873" y2="0.666627" gradientUnits="userSpaceOnUse">
<stop stop-color="#9F2FFF"/>
<stop offset="1" stop-color="#0BB1D3"/>
</linearGradient>
<clipPath id="clip0_7775_266">
<rect width="19.9987" height="20" fill="white"/>
</clipPath>
</defs>
</svg>
