<svg width="20" height="20" viewBox="0 0 20 20" fill="none" xmlns="http://www.w3.org/2000/svg">
<path d="M10.0066 4.2331C10.3411 4.2331 10.6128 3.962 10.6128 3.62688V1.93953C10.6128 1.60507 10.3417 1.33331 10.0066 1.33331C9.67153 1.33331 9.40045 1.60441 9.40045 1.93953V3.62688C9.40045 3.96135 9.67153 4.2331 10.0066 4.2331Z" fill="#0BB1D3"/>
<path d="M12.2439 4.68651C12.321 4.71917 12.4013 4.73485 12.4803 4.73485C12.7161 4.73485 12.9408 4.59636 13.0382 4.36511L13.6973 2.81167C13.8279 2.50333 13.6842 2.14797 13.3759 2.01731C13.0682 1.88666 12.7122 2.03038 12.5816 2.33872L11.9225 3.89215C11.7919 4.20049 11.9356 4.55586 12.2439 4.68651Z" fill="#0BB1D3"/>
<path d="M6.96254 4.36509C7.06053 4.59569 7.28458 4.73418 7.52038 4.73418C7.59942 4.73418 7.67911 4.7185 7.75685 4.68583C8.06516 4.55518 8.20821 4.19916 8.07823 3.89148L7.41848 2.33804C7.28719 2.03036 6.9325 1.88599 6.62418 2.0173C6.31587 2.14795 6.17281 2.50397 6.3028 2.81165L6.96254 4.36509Z" fill="#0BB1D3"/>
<path d="M5.31712 15.2862H6.43411C6.27734 14.8799 6.18719 14.4389 6.18197 13.9803L3.18439 10.4051C3.16087 10.3763 3.13801 10.3469 3.11776 10.3182C2.78397 10.0889 2.39205 9.96741 1.98901 9.96741C1.87601 9.96741 1.75974 9.97917 1.64347 9.99942C1.06342 10.1013 0.561098 10.4521 0.267807 10.963C-0.0280968 11.4705 -0.0803535 12.08 0.119529 12.6346C0.322677 13.1893 0.755102 13.6217 1.30641 13.8216L5.31646 15.2868L5.31712 15.2862Z" fill="url(#paint0_linear_7775_122)"/>
<path d="M19.7333 10.9624C19.4374 10.4516 18.9383 10.1008 18.3576 9.99885C17.8383 9.90609 17.3098 10.0224 16.8833 10.3183C16.8631 10.347 16.8395 10.3764 16.8167 10.4052L13.8191 13.9772C13.8132 14.4384 13.7263 14.8793 13.567 15.2856H14.6696L18.6914 13.8204C19.246 13.6205 19.6777 13.188 19.8783 12.6334C20.0814 12.0795 20.0265 11.47 19.7333 10.9617V10.9624Z" fill="url(#paint1_linear_7775_122)"/>
<path d="M6.34049 12.8169C6.57826 12.0245 7.06882 11.3399 7.71876 10.8552L7.18509 7.82277C7.17921 7.79402 7.1766 7.76463 7.17333 7.73588C6.95581 7.25705 6.5554 6.88274 6.05308 6.70309C5.83229 6.62209 5.60302 6.58093 5.37439 6.58093C5.02885 6.58093 4.68656 6.67108 4.3789 6.84811C3.87136 7.14142 3.51993 7.64312 3.41542 8.22386C3.31352 8.80395 3.47355 9.39319 3.85045 9.84589L6.33984 12.8175L6.34049 12.8169Z" fill="url(#paint2_linear_7775_122)"/>
<path d="M13.6595 12.8137L16.1489 9.84529C16.5258 9.39259 16.6826 8.80335 16.5813 8.22326C16.4801 7.64317 16.1286 7.14082 15.6178 6.84751C15.1103 6.5542 14.4976 6.49933 13.9463 6.70249C13.4472 6.88214 13.0494 7.24796 12.826 7.72418C12.826 7.75619 12.8201 7.79081 12.8143 7.82282L12.2806 10.8552C12.9305 11.3399 13.4211 12.0219 13.6589 12.8137H13.6595Z" fill="url(#paint3_linear_7775_122)"/>
<path d="M8.52092 10.394C8.9762 10.2025 9.47591 10.098 10.0011 10.098C10.5263 10.098 11.0227 10.2025 11.478 10.394L11.9568 7.67511C12.0587 7.09502 11.9019 6.50252 11.5218 6.05309C11.1449 5.60038 10.5903 5.34235 10.0011 5.34235C9.41189 5.34235 8.85797 5.60038 8.47781 6.05309C8.10025 6.50252 7.94087 7.09502 8.04277 7.67511L8.52157 10.394H8.52092Z" fill="url(#paint4_linear_7775_122)"/>
<path d="M7.38622 15.2863H12.6152C12.8301 14.8774 12.9516 14.4129 12.9516 13.9197C12.9516 12.2885 11.6282 10.9683 10.0004 10.9683C8.37257 10.9683 7.04916 12.2885 7.04916 13.9197C7.04916 14.4129 7.17131 14.8774 7.38557 15.2863H7.38622ZM10.0004 12.0743C11.0161 12.0743 11.8457 12.9013 11.8457 13.9197C11.8457 14.1575 11.651 14.3548 11.4106 14.3548C11.1703 14.3548 10.9756 14.1575 10.9756 13.9197C10.9756 13.3801 10.5373 12.9444 10.0004 12.9444C9.75933 12.9444 9.56533 12.7497 9.56533 12.5093C9.56533 12.2689 9.75998 12.0743 10.0004 12.0743Z" fill="#0BB1D3"/>
<path d="M18.4986 16.1555H1.5021C1.24277 16.1555 1.07882 16.4338 1.20489 16.6605L1.51843 17.2242C1.93844 17.9801 2.73536 18.4484 3.60021 18.4484H16.4005C17.2654 18.4484 18.0623 17.9794 18.4823 17.2242L18.7958 16.6605C18.9219 16.4338 18.7579 16.1555 18.4986 16.1555Z" fill="url(#paint5_linear_7775_122)"/>
<defs>
<linearGradient id="paint0_linear_7775_122" x1="3.21713" y1="15.2868" x2="3.21713" y2="9.96739" gradientUnits="userSpaceOnUse">
<stop stop-color="#9F2FFF"/>
<stop offset="1" stop-color="#0BB1D3"/>
</linearGradient>
<linearGradient id="paint1_linear_7775_122" x1="16.7832" y1="15.2856" x2="16.7832" y2="9.96763" gradientUnits="userSpaceOnUse">
<stop stop-color="#9F2FFF"/>
<stop offset="1" stop-color="#0BB1D3"/>
</linearGradient>
<linearGradient id="paint2_linear_7775_122" x1="5.55205" y1="12.8175" x2="5.55205" y2="6.58091" gradientUnits="userSpaceOnUse">
<stop stop-color="#9F2FFF"/>
<stop offset="1" stop-color="#0BB1D3"/>
</linearGradient>
<linearGradient id="paint3_linear_7775_122" x1="14.446" y1="12.8137" x2="14.446" y2="6.58128" gradientUnits="userSpaceOnUse">
<stop stop-color="#9F2FFF"/>
<stop offset="1" stop-color="#0BB1D3"/>
</linearGradient>
<linearGradient id="paint4_linear_7775_122" x1="9.99991" y1="10.394" x2="9.99991" y2="5.34233" gradientUnits="userSpaceOnUse">
<stop stop-color="#9F2FFF"/>
<stop offset="1" stop-color="#0BB1D3"/>
</linearGradient>
<linearGradient id="paint5_linear_7775_122" x1="10.0004" y1="18.4484" x2="10.0004" y2="16.1555" gradientUnits="userSpaceOnUse">
<stop stop-color="#9F2FFF"/>
<stop offset="1" stop-color="#0BB1D3"/>
</linearGradient>
</defs>
</svg>
