<svg width="20" height="20" viewBox="0 0 20 20" fill="none" xmlns="http://www.w3.org/2000/svg">
<g clip-path="url(#clip0_8094_152)">
<path d="M17.047 15.7754H2.94895C2.30827 15.7754 1.78894 16.2948 1.78894 16.9355C1.78894 17.5762 2.30827 18.0956 2.94895 18.0956H17.047C17.6877 18.0956 18.207 17.5762 18.207 16.9355C18.207 16.2948 17.6877 15.7754 17.047 15.7754Z" fill="#0BB1D3"/>
<path d="M9.81121 4.09841C9.82127 4.10029 9.83071 4.10155 9.84076 4.10281C9.89232 4.11035 9.94451 4.11539 9.99795 4.11539C10.0514 4.11539 10.1036 4.11035 10.1551 4.10281C10.1652 4.10155 10.1752 4.10029 10.1847 4.09841C10.2362 4.08961 10.2872 4.07766 10.3362 4.06194C10.7813 3.91921 11.1033 3.50233 11.1033 3.00937C11.1033 2.39884 10.6084 1.90399 9.99795 1.90399C9.38745 1.90399 8.89264 2.39884 8.89264 3.00937C8.89264 3.55578 9.29 4.00912 9.81121 4.09778V4.09841Z" fill="url(#paint0_linear_8094_152)"/>
<path d="M1.12983 8.30304C1.16944 8.30241 1.20779 8.29926 1.24614 8.29423C1.2474 8.29423 1.24803 8.29423 1.24929 8.29423C1.28701 8.2892 1.32348 8.28229 1.35994 8.27411C1.36057 8.27411 1.36183 8.27411 1.36246 8.27411C1.39893 8.26531 1.43476 8.25462 1.46997 8.24268C1.90128 8.09177 2.21062 7.68244 2.21062 7.20017C2.21062 6.58963 1.71581 6.09479 1.10531 6.09479C0.494811 6.09479 0 6.58775 0 7.19828C0 7.80882 0.494811 8.30367 1.10531 8.30367C1.11348 8.30367 1.12103 8.30241 1.1292 8.30241L1.12983 8.30304Z" fill="url(#paint1_linear_8094_152)"/>
<path d="M18.8932 6.09279C18.2827 6.09279 17.7879 6.58764 17.7879 7.19817C17.7879 7.64083 18.0488 8.02187 18.4248 8.19855C18.4581 8.21427 18.4927 8.22873 18.5285 8.24068C18.5285 8.24068 18.5291 8.24068 18.5298 8.24068C18.5644 8.25263 18.6002 8.26331 18.6367 8.27212C18.6379 8.27212 18.6385 8.27212 18.6398 8.27275C18.6763 8.28155 18.7127 8.28784 18.7498 8.29287C18.7511 8.29287 18.7517 8.29287 18.753 8.29287C18.7913 8.2979 18.8303 8.30041 18.8693 8.30167C18.8775 8.30167 18.885 8.30293 18.8932 8.30293C19.5037 8.30293 19.9985 7.80808 19.9985 7.19755C19.9985 6.58701 19.5037 6.09216 18.8932 6.09216V6.09279Z" fill="url(#paint2_linear_8094_152)"/>
<path d="M15.0701 10.8507C13.0003 10.8507 11.221 8.25951 10.4332 4.54724C10.2949 4.58623 10.149 4.60886 9.99811 4.60886C9.84721 4.60886 9.70135 4.58623 9.56303 4.54724C8.7746 8.26014 6.99592 10.8507 4.92614 10.8507C3.75481 10.8507 2.6778 10.0182 1.81958 8.62609C1.61964 8.72669 1.39581 8.78643 1.15878 8.7946C1.32854 11.1022 1.89943 13.2312 2.76582 15.0251H17.2304C18.0968 13.2312 18.6677 11.1028 18.8374 8.7946C18.6004 8.78643 18.3766 8.72732 18.176 8.62609C17.3178 10.0188 16.2408 10.8507 15.0695 10.8507H15.0701Z" fill="url(#paint3_linear_8094_152)"/>
<path d="M1.12983 8.30304C1.16944 8.30241 1.20779 8.29926 1.24614 8.29423C1.2474 8.29423 1.24803 8.29423 1.24929 8.29423C1.28701 8.2892 1.32348 8.28229 1.35994 8.27411C1.36057 8.27411 1.36183 8.27411 1.36246 8.27411C1.39893 8.26531 1.43476 8.25462 1.46997 8.24268C1.90128 8.09177 2.21062 7.68244 2.21062 7.20017C2.21062 6.58963 1.71581 6.09479 1.10531 6.09479C0.494811 6.09479 0 6.58775 0 7.19828C0 7.80882 0.494811 8.30367 1.10531 8.30367C1.11348 8.30367 1.12103 8.30241 1.1292 8.30241L1.12983 8.30304Z" fill="url(#paint4_linear_8094_152)"/>
<path d="M18.8932 6.09279C18.2827 6.09279 17.7879 6.58764 17.7879 7.19817C17.7879 7.64083 18.0488 8.02187 18.4248 8.19855C18.4581 8.21427 18.4927 8.22873 18.5285 8.24068C18.5285 8.24068 18.5291 8.24068 18.5298 8.24068C18.5644 8.25263 18.6002 8.26331 18.6367 8.27212C18.6379 8.27212 18.6385 8.27212 18.6398 8.27275C18.6763 8.28155 18.7127 8.28784 18.7498 8.29287C18.7511 8.29287 18.7517 8.29287 18.753 8.29287C18.7913 8.2979 18.8303 8.30041 18.8693 8.30167C18.8775 8.30167 18.885 8.30293 18.8932 8.30293C19.5037 8.30293 19.9985 7.80808 19.9985 7.19755C19.9985 6.58701 19.5037 6.09216 18.8932 6.09216V6.09279Z" fill="url(#paint5_linear_8094_152)"/>
<path d="M17.2322 15.0244C18.0986 13.2305 18.6695 11.1022 18.8393 8.79393C18.6023 8.78575 18.3784 8.72665 18.1779 8.62542C17.3196 10.0181 16.2426 10.85 15.0713 10.85C13.0015 10.85 11.2222 8.25884 10.4344 4.54657C10.2961 4.58555 10.1502 4.60819 9.99933 4.60819V15.0238H17.2316L17.2322 15.0244Z" fill="url(#paint6_linear_8094_152)"/>
<path d="M10.1565 4.10342C10.1666 4.10216 10.1766 4.10091 10.1861 4.09902C10.2376 4.09022 10.2885 4.07827 10.3376 4.06255C10.7827 3.91982 11.1046 3.50294 11.1046 3.00998C11.1046 2.39945 10.6098 1.9046 9.99933 1.9046V4.11537C10.0528 4.11537 10.105 4.11034 10.1565 4.10279V4.10342Z" fill="url(#paint7_linear_8094_152)"/>
<path d="M13.954 7.50962C13.9609 7.51088 13.9678 7.51151 13.9741 7.51276C14.0093 7.51779 14.0452 7.52157 14.0823 7.52157C14.1194 7.52157 14.1546 7.51779 14.1898 7.51276C14.1967 7.51151 14.2036 7.51088 14.2105 7.50962C14.2457 7.50333 14.2809 7.49579 14.3143 7.4851C14.6192 7.38701 14.8399 7.10155 14.8399 6.7639C14.8399 6.34513 14.5004 6.00623 14.0823 6.00623C13.6642 6.00623 13.3246 6.34576 13.3246 6.7639C13.3246 7.13864 13.5969 7.44863 13.954 7.51025V7.50962Z" fill="url(#paint8_linear_8094_152)"/>
<path d="M5.78787 7.50962C5.79478 7.51088 5.8017 7.51151 5.80799 7.51276C5.8432 7.51779 5.87903 7.52157 5.91613 7.52157C5.95322 7.52157 5.98843 7.51779 6.02364 7.51276C6.03056 7.51151 6.03747 7.51088 6.04439 7.50962C6.0796 7.50333 6.11418 7.49579 6.14813 7.4851C6.45306 7.38701 6.67375 7.10155 6.67375 6.7639C6.67375 6.34513 6.33486 6.00623 5.91613 6.00623C5.49739 6.00623 5.15851 6.34576 5.15851 6.7639C5.15851 7.13864 5.43075 7.44863 5.78787 7.51025V7.50962Z" fill="url(#paint9_linear_8094_152)"/>
<path d="M6.72095 9.51414C6.51724 9.00231 6.34497 8.43327 6.2142 7.81708C6.11926 7.84411 6.01929 7.85921 5.91618 7.85921C5.81307 7.85921 5.7131 7.84411 5.61816 7.81708C5.41005 8.79733 5.10071 9.66315 4.71844 10.3573C4.79075 10.3649 4.86054 10.3699 4.92655 10.3699C5.54585 10.3699 6.15698 10.0656 6.72095 9.51476V9.51414Z" fill="url(#paint10_linear_8094_152)"/>
<path d="M15.2803 10.3579C14.898 9.66315 14.5887 8.79733 14.3806 7.81708C14.2856 7.84411 14.1857 7.85921 14.0825 7.85921C13.9794 7.85921 13.8795 7.84411 13.7845 7.81708C13.6538 8.43327 13.4815 9.00231 13.2778 9.51476C13.8417 10.0656 14.4529 10.3699 15.0722 10.3699C15.1426 10.3699 15.2124 10.3655 15.2809 10.3586L15.2803 10.3579Z" fill="url(#paint11_linear_8094_152)"/>
</g>
<defs>
<linearGradient id="paint0_linear_8094_152" x1="9.99795" y1="4.11539" x2="9.99795" y2="1.90398" gradientUnits="userSpaceOnUse">
<stop stop-color="#9F2FFF"/>
<stop offset="1" stop-color="#0BB1D3"/>
</linearGradient>
<linearGradient id="paint1_linear_8094_152" x1="1.10531" y1="8.30367" x2="1.10531" y2="6.09478" gradientUnits="userSpaceOnUse">
<stop stop-color="#9F2FFF"/>
<stop offset="1" stop-color="#0BB1D3"/>
</linearGradient>
<linearGradient id="paint2_linear_8094_152" x1="18.8932" y1="8.30293" x2="18.8932" y2="6.09216" gradientUnits="userSpaceOnUse">
<stop stop-color="#9F2FFF"/>
<stop offset="1" stop-color="#0BB1D3"/>
</linearGradient>
<linearGradient id="paint3_linear_8094_152" x1="9.99811" y1="15.0251" x2="9.99811" y2="4.54721" gradientUnits="userSpaceOnUse">
<stop stop-color="#9F2FFF"/>
<stop offset="1" stop-color="#0BB1D3"/>
</linearGradient>
<linearGradient id="paint4_linear_8094_152" x1="1.10531" y1="8.30367" x2="1.10531" y2="6.09478" gradientUnits="userSpaceOnUse">
<stop stop-color="#9F2FFF"/>
<stop offset="1" stop-color="#0BB1D3"/>
</linearGradient>
<linearGradient id="paint5_linear_8094_152" x1="18.8932" y1="8.30293" x2="18.8932" y2="6.09216" gradientUnits="userSpaceOnUse">
<stop stop-color="#9F2FFF"/>
<stop offset="1" stop-color="#0BB1D3"/>
</linearGradient>
<linearGradient id="paint6_linear_8094_152" x1="14.4193" y1="15.0244" x2="14.4193" y2="4.54654" gradientUnits="userSpaceOnUse">
<stop stop-color="#9F2FFF"/>
<stop offset="1" stop-color="#0BB1D3"/>
</linearGradient>
<linearGradient id="paint7_linear_8094_152" x1="10.552" y1="4.11537" x2="10.552" y2="1.90459" gradientUnits="userSpaceOnUse">
<stop stop-color="#9F2FFF"/>
<stop offset="1" stop-color="#0BB1D3"/>
</linearGradient>
<linearGradient id="paint8_linear_8094_152" x1="14.0823" y1="7.52157" x2="14.0823" y2="6.00622" gradientUnits="userSpaceOnUse">
<stop stop-color="#9F2FFF"/>
<stop offset="1" stop-color="#0BB1D3"/>
</linearGradient>
<linearGradient id="paint9_linear_8094_152" x1="5.91613" y1="7.52157" x2="5.91613" y2="6.00622" gradientUnits="userSpaceOnUse">
<stop stop-color="#9F2FFF"/>
<stop offset="1" stop-color="#0BB1D3"/>
</linearGradient>
<linearGradient id="paint10_linear_8094_152" x1="5.7197" y1="10.3699" x2="5.7197" y2="7.81707" gradientUnits="userSpaceOnUse">
<stop stop-color="#9F2FFF"/>
<stop offset="1" stop-color="#0BB1D3"/>
</linearGradient>
<linearGradient id="paint11_linear_8094_152" x1="14.2793" y1="10.3699" x2="14.2793" y2="7.81707" gradientUnits="userSpaceOnUse">
<stop stop-color="#9F2FFF"/>
<stop offset="1" stop-color="#0BB1D3"/>
</linearGradient>
<clipPath id="clip0_8094_152">
<rect width="19.9987" height="20" fill="white"/>
</clipPath>
</defs>
</svg>
